<?xml version="1.0" encoding="UTF-8"?>
<svg id="Layer_1" data-name="Layer 1" xmlns="http://www.w3.org/2000/svg" xmlns:xlink="http://www.w3.org/1999/xlink" viewBox="0 0 196.91 311.82">
  <defs>
    <style>
      .cls-1 {
        clip-path: url(#clippath);
      }

      .cls-2, .cls-3 {
        fill: #f8dd51;
      }

      .cls-4 {
        fill: #f1ca4f;
      }

      .cls-5 {
        fill: #fff;
      }

      .cls-6 {
        fill: #fae4bf;
      }

      .cls-7, .cls-8 {
        fill: #a22430;
      }

      .cls-9 {
        fill: #cfd0d2;
      }

      .cls-10 {
        fill: #cd2f4a;
      }

      .cls-11, .cls-12 {
        fill: #d5c5a8;
      }

      .cls-8, .cls-12, .cls-3, .cls-13, .cls-14, .cls-15 {
        stroke-miterlimit: 10;
        stroke-width: 4px;
      }

      .cls-8, .cls-14 {
        stroke: #a22430;
      }

      .cls-12, .cls-15 {
        stroke: #d5c5a8;
      }

      .cls-3, .cls-13 {
        stroke: #f1ca4f;
      }

      .cls-16 {
        clip-path: url(#clippath-1);
      }

      .cls-17 {
        clip-path: url(#clippath-2);
      }

      .cls-13, .cls-14, .cls-15 {
        fill: none;
      }
    </style>
    <clipPath id="clippath">
      <path class="cls-12" d="m70.75,304.99c-19.15-7.19-25.81-19.7-28.96-25.62-8.68-16.31-8.82-40.42,9.69-49.19,3.78-1.79,7.56-2.57,10.16-2.95h73.52c2.59.37,6.38,1.15,10.16,2.95,18.38,8.77,17.75,32.97,9.06,49.18-3.43,6.4-10.39,19.39-30.35,26.34-26.14,9.1-51.73-.12-53.29-.71Z"/>
    </clipPath>
    <clipPath id="clippath-1">
      <path class="cls-8" d="m193.14,211.77c-5.83,31.14-64.15,41.66-98.75,40.39-29.96-1.1-86.19-12.65-91.25-43.28-5.25-31.82,45.16-81.74,96.25-80.79,50.71.94,99.69,51.94,93.75,83.67Z"/>
    </clipPath>
    <clipPath id="clippath-2">
      <path class="cls-3" d="m174.65,68.03c0,3.27-2.65,5.91-5.92,5.91-.75,0-1.47-.14-2.13-.4l-24.47,56.44c-5.68,3.65-21.45,12.71-43.43,12.14-21.55-.55-36.61-10.04-42.17-13.94l-19.6-60.46c-.59.2-1.22.31-1.87.31-3.27,0-5.92-2.65-5.92-5.92s2.65-5.92,5.92-5.92,5.92,2.65,5.92,5.92c0,1.42-.5,2.72-1.34,3.75,11.16,14.54,22.33,29.07,33.49,43.61,9.24-18.91,18.48-37.81,27.71-56.72-1.57-1.06-3.32-3.1-3.32-5.14,0-3.27,2.65-5.92,5.92-5.92s5.92,2.65,5.92,5.92c0,2.34-1.86,4.45-3.83,5.41,8.24,19.8,16.49,39.59,24.73,59.39,11.33-13.51,22.65-27.02,33.98-40.52-.89-1.03-1.43-2.38-1.43-3.85,0-3.27,2.65-5.92,5.92-5.92s5.92,2.65,5.92,5.92Z"/>
    </clipPath>
  </defs>
  <g>
    <path class="cls-11" d="m70.75,304.99c-19.15-7.19-25.81-19.7-28.96-25.62-8.68-16.31-8.82-40.42,9.69-49.19,3.78-1.79,7.56-2.57,10.16-2.95h73.52c2.59.37,6.38,1.15,10.16,2.95,18.38,8.77,17.75,32.97,9.06,49.18-3.43,6.4-10.39,19.39-30.35,26.34-26.14,9.1-51.73-.12-53.29-.71Z"/>
    <g class="cls-1">
      <path class="cls-6" d="m164.03,246.13c4.93,21.49-13.86,41.02-15.97,43.15-21.47,21.69-57.55,20.99-79.39,4.59-2.62-1.97-24.52-18.91-22.65-41.12.48-5.7,2.37-9.82,3.32-11.83,11.3-24.06,44.48-28.07,47.22-28.36,24.36-2.59,61.43,7.3,67.47,33.57Z"/>
    </g>
    <path class="cls-15" d="m70.75,304.99c-19.15-7.19-25.81-19.7-28.96-25.62-8.68-16.31-8.82-40.42,9.69-49.19,3.78-1.79,7.56-2.57,10.16-2.95h73.52c2.59.37,6.38,1.15,10.16,2.95,18.38,8.77,17.75,32.97,9.06,49.18-3.43,6.4-10.39,19.39-30.35,26.34-26.14,9.1-51.73-.12-53.29-.71Z"/>
  </g>
  <g>
    <path class="cls-7" d="m193.14,211.77c-5.83,31.14-64.15,41.66-98.75,40.39-29.96-1.1-86.19-12.65-91.25-43.28-5.25-31.82,45.16-81.74,96.25-80.79,50.71.94,99.69,51.94,93.75,83.67Z"/>
    <g class="cls-16">
      <path class="cls-10" d="m197.51,186.38c.74,3.8,2.27,12.22-1.21,21.54-12.4,33.2-73.77,41.64-117.48,32.79-14.98-3.04-59.75-12.11-65.41-37.69-6.4-28.92,39.02-70.77,85.98-74.93,42.71-3.78,91.29,23.22,98.12,58.29Z"/>
      <path class="cls-5" d="m155.45,221.22c-.73,3.75-2.23,11.49,1.98,18.85,5.58,9.75,17.91,13.08,27.02,12.2,14.21-1.37,29-13.79,29-31.05s-12.98-31.05-29-31.05c-18.1,0-26.95,20.47-29,31.05Z"/>
      <path class="cls-5" d="m63,140.31c-.17,6.13,18.74,12.82,35.3,14.02,19,1.38,40.55-4.05,40.95-10.47.18-2.92-4.06-5.32-9.68-8.49-11.92-6.74-23.36-7.12-30.18-7.27-16.17-.36-25.46,4.07-27.89,5.3-4.75,2.4-8.42,4.25-8.49,6.91Z"/>
      <path class="cls-5" d="m132.07,198.42c.88,9.75-8.79,17.56-10.72,19.12-7.86,6.36-16.7,7.2-20.35,7.5-2.8.23-21.06,1.74-31.09-10.5-1.34-1.64-6.68-8.15-5.48-16.12,1.96-13,20.09-21.93,35.45-21.37,14.03.51,31.09,9.15,32.18,21.37Z"/>
      <path class="cls-5" d="m40.3,223.13c.73,3.75,2.23,11.49-1.98,18.85-5.58,9.75-17.91,13.08-27.02,12.2-14.21-1.37-29-13.79-29-31.05s12.98-31.05,29-31.05c18.1,0,26.95,20.47,29,31.05Z"/>
      <path class="cls-9" d="m156.49,238.21c2.96-.82,6.12-1.89,9.42-3.28,9.88-4.17,17.32-9.73,22.54-14.49-1.24,1.94-3.27,4.79-6.29,7.71-5.14,4.96-10.5,7.49-16.23,10.21-3.14,1.49-5.8,2.56-7.61,3.24-.3-.48-.6-.99-.9-1.53-.35-.64-.66-1.26-.93-1.85Z"/>
      <path class="cls-9" d="m13.25,192.17c-1.12,7.13.39,12.27,1.42,14.89,3.18,8.17,9.71,12.67,15.39,16.59,4.3,2.97,8.25,4.86,11.08,6.04.11,1.55.08,3.73-.52,6.24-.47,1.98-.47,3.58-1.09,4.78-2.39-.39-21.43-3.72-30.78-20.8-6.46-11.79-4.88-23.29-4.22-26.97,1.13-.29,2.46-.55,3.95-.7,1.81-.18,3.42-.16,4.77-.06Z"/>
    </g>
    <path class="cls-14" d="m193.14,211.77c-5.83,31.14-64.15,41.66-98.75,40.39-29.96-1.1-86.19-12.65-91.25-43.28-5.25-31.82,45.16-81.74,96.25-80.79,50.71.94,99.69,51.94,93.75,83.67Z"/>
  </g>
  <g>
    <path class="cls-2" d="m174.65,68.03c0,3.27-2.65,5.91-5.92,5.91-.75,0-1.47-.14-2.13-.4l-24.47,56.44c-5.68,3.65-21.45,12.71-43.43,12.14-21.55-.55-36.61-10.04-42.17-13.94l-19.6-60.46c-.59.2-1.22.31-1.87.31-3.27,0-5.92-2.65-5.92-5.92s2.65-5.92,5.92-5.92,5.92,2.65,5.92,5.92c0,1.42-.5,2.72-1.34,3.75,11.16,14.54,22.33,29.07,33.49,43.61,9.24-18.91,18.48-37.81,27.71-56.72-1.57-1.06-3.32-3.1-3.32-5.14,0-3.27,2.65-5.92,5.92-5.92s5.92,2.65,5.92,5.92c0,2.34-1.86,4.45-3.83,5.41,8.24,19.8,16.49,39.59,24.73,59.39,11.33-13.51,22.65-27.02,33.98-40.52-.89-1.03-1.43-2.38-1.43-3.85,0-3.27,2.65-5.92,5.92-5.92s5.92,2.65,5.92,5.92Z"/>
    <g class="cls-17">
      <polygon class="cls-5" points="33.81 91.53 89.43 147.24 101.89 146.93 34.11 79.05 33.81 91.53"/>
      <polygon class="cls-5" points="84.79 78.56 142.03 136.4 154.86 136.09 85.11 65.6 84.79 78.56"/>
    </g>
    <path class="cls-13" d="m174.65,68.03c0,3.27-2.65,5.91-5.92,5.91-.75,0-1.47-.14-2.13-.4l-24.47,56.44c-5.68,3.65-21.45,12.71-43.43,12.14-21.55-.55-36.61-10.04-42.17-13.94l-19.6-60.46c-.59.2-1.22.31-1.87.31-3.27,0-5.92-2.65-5.92-5.92s2.65-5.92,5.92-5.92,5.92,2.65,5.92,5.92c0,1.42-.5,2.72-1.34,3.75,11.16,14.54,22.33,29.07,33.49,43.61,9.24-18.91,18.48-37.81,27.71-56.72-1.57-1.06-3.32-3.1-3.32-5.14,0-3.27,2.65-5.92,5.92-5.92s5.92,2.65,5.92,5.92c0,2.34-1.86,4.45-3.83,5.41,8.24,19.8,16.49,39.59,24.73,59.39,11.33-13.51,22.65-27.02,33.98-40.52-.89-1.03-1.43-2.38-1.43-3.85,0-3.27,2.65-5.92,5.92-5.92s5.92,2.65,5.92,5.92Z"/>
  </g>
  <path class="cls-3" d="m146.22,91.95l-16.43,19.64-9.97-23.19,15.16-22.53c-1.51-1.01-2.51-2.73-2.51-4.69,0-3.1,2.52-5.62,5.63-5.62s5.62,2.52,5.62,5.62c0,2.6-1.76,4.79-4.15,5.43l6.65,25.34Z"/>
  <path class="cls-3" d="m83.92,86.24l-10.8,23.22-15.62-19.82,8.85-25.77c-2.11-.82-3.61-2.86-3.61-5.26,0-3.1,2.52-5.62,5.62-5.62s5.63,2.52,5.63,5.62c0,2.15-1.21,4.02-2.99,4.97l12.92,22.66Z"/>
  <g>
    <line class="cls-2" x1="4.02" y1="72.34" x2="9.86" y2="83.65"/>
    <path class="cls-4" d="m2.57,72.73c1.71,3.31,3.41,6.61,5.12,9.92.24.46.48.93.72,1.39.29.55,1.13.44,1.64.31.29-.08,1.53-.56,1.26-1.09-1.71-3.31-3.41-6.61-5.12-9.92-.24-.46-.48-.93-.72-1.39-.29-.55-1.13-.44-1.64-.31-.29.08-1.53.56-1.26,1.09h0Z"/>
  </g>
  <g>
    <line class="cls-2" x1="12.58" y1="74.88" x2="1.69" y2="81.11"/>
    <path class="cls-4" d="m11.67,74.43c-3.18,1.82-6.37,3.64-9.55,5.46-.45.26-.9.51-1.35.77s-.83.86-.24,1.17c.62.33,1.5.06,2.05-.26,3.18-1.82,6.37-3.64,9.55-5.46.45-.26.9-.51,1.35-.77s.83-.86.24-1.17c-.62-.33-1.5-.06-2.05.26h0Z"/>
  </g>
  <g>
    <line class="cls-2" x1="161.59" y1="20.2" x2="167.43" y2="31.5"/>
    <path class="cls-4" d="m160.14,20.58c1.71,3.31,3.41,6.61,5.12,9.92.24.46.48.93.72,1.39.29.55,1.13.44,1.64.31.29-.08,1.53-.56,1.26-1.09-1.71-3.31-3.41-6.61-5.12-9.92-.24-.46-.48-.93-.72-1.39-.29-.55-1.13-.44-1.64-.31-.29.08-1.53.56-1.26,1.09h0Z"/>
  </g>
  <g>
    <line class="cls-2" x1="170.15" y1="22.74" x2="159.26" y2="28.96"/>
    <path class="cls-4" d="m169.25,22.28c-3.18,1.82-6.37,3.64-9.55,5.46-.45.26-.9.51-1.35.77s-.83.86-.24,1.17c.62.33,1.5.06,2.05-.26,3.18-1.82,6.37-3.64,9.55-5.46.45-.26.9-.51,1.35-.77s.83-.86.24-1.17c-.62-.33-1.5-.06-2.05.26h0Z"/>
  </g>
  <g>
    <line class="cls-2" x1="48.38" y1="1.25" x2="54.22" y2="12.56"/>
    <path class="cls-4" d="m46.93,1.64c1.71,3.31,3.41,6.61,5.12,9.92.24.46.48.93.72,1.39.29.55,1.13.44,1.64.31.29-.08,1.53-.56,1.26-1.09-1.71-3.31-3.41-6.61-5.12-9.92-.24-.46-.48-.93-.72-1.39-.29-.55-1.13-.44-1.64-.31-.29.08-1.53.56-1.26,1.09h0Z"/>
  </g>
  <g>
    <line class="cls-2" x1="56.94" y1="3.79" x2="46.05" y2="10.01"/>
    <path class="cls-4" d="m56.04,3.34c-3.18,1.82-6.37,3.64-9.55,5.46-.45.26-.9.51-1.35.77s-.83.86-.24,1.17c.62.33,1.5.06,2.05-.26,3.18-1.82,6.37-3.64,9.55-5.46.45-.26.9-.51,1.35-.77s.83-.86.24-1.17c-.62-.33-1.5-.06-2.05.26h0Z"/>
  </g>
  <g>
    <line class="cls-2" x1="186.79" y1="119.46" x2="192.62" y2="130.77"/>
    <path class="cls-4" d="m185.74,119.51c1.71,3.31,3.41,6.61,5.12,9.92.24.46.48.93.72,1.39.27.52.96.9,1.54.87.55-.03.8-.48.54-.97-1.71-3.31-3.41-6.61-5.12-9.92-.24-.46-.48-.93-.72-1.39-.27-.52-.96-.9-1.54-.87-.55.03-.8.48-.54.97h0Z"/>
  </g>
  <g>
    <line class="cls-2" x1="195.35" y1="122" x2="184.45" y2="128.23"/>
    <path class="cls-4" d="m194.81,120.87c-3.18,1.82-6.37,3.64-9.55,5.46-.45.26-.9.51-1.35.77-.57.33-.75,1.02-.47,1.61.25.52.97.98,1.54.65,3.18-1.82,6.37-3.64,9.55-5.46.45-.26.9-.51,1.35-.77.57-.33.75-1.02.47-1.61-.25-.52-.97-.98-1.54-.65h0Z"/>
  </g>
</svg>