<?xml version="1.0" encoding="UTF-8"?>
<svg id="visual" xmlns="http://www.w3.org/2000/svg" viewBox="0 0 900 135.71" preserveAspectRatio="none">
  <defs>
    <style>
      .cls-1 {
        fill: #164a41;
      }

      .cls-2 {
        fill: #235847;
      }

      .cls-3 {
        fill: #1a4f43;
      }

      .cls-4 {
        fill: #396a4c;
      }

      .cls-5 {
        fill: #2e6149;
      }

      .cls-6 {
        fill: #46734d;
      }

      .cls-7 {
        fill: #4d774e;
      }
    </style>
  </defs>
  <path class="cls-1" d="m0,123l16.7,3.5c16.6,3.5,50,10.5,83.3,9s66.7-11.5,100-16.7c33.3-5.1,66.7-5.5,100-.1,33.3,5.3,66.7,16.3,100,13.5,33.3-2.9,66.7-19.5,100-19.5s66.7,16.6,100,17.6,66.7-13.6,100-22.8,66.7-12.8,100-9.7c33.3,3.2,66.7,13.2,83.3,18.2l16.7,5V0H0v123Z"/>
  <path class="cls-3" d="m69.86,83.38l1.5,2.26c6.63,9.98,16.23,17.62,27.47,21.79,14.11,5.23,31.96,11,53.31,9.08,31.13-2.8,62.35-17.2,93.48-22.8,31.13-5.7,62.35-2.7,93.48-3.9,31.13-1.1,62.35-6.5,93.48-1.6,31.13,4.8,62.35,19.8,93.48,23.6,31.13,3.9,62.35-3.5,93.48-7s62.35-3.1,93.48-3c31.13.2,62.35.2,93.48-.1,31.13-.4,62.35-1,77.87-1.4l15.61-.3V0H58.65l3.55,60.46c.48,8.18,3.12,16.09,7.66,22.92Z"/>
  <path class="cls-2" d="m130.62,56.48h0c6.49,4.88,14.28,7.61,22.37,8.23,12.78.97,28.76,7.68,51.28,6.59,28.96-1.3,58.01,4.7,86.97,8,28.96,3.4,58.01,4,86.97,8.2s58.01,11.8,86.97,8.2c28.96-3.7,58.01-18.7,86.97-25.2,28.96-6.5,58.01-4.5,86.97,2.3,28.96,6.9,58.01,18.5,86.97,24,28.96,5.5,58.01,4.9,86.97,3.9s58.01-2.4,72.44-3l14.52-.7V0H117.31l4.54,41.09c.68,6.12,3.85,11.69,8.77,15.39Z"/>
  <path class="cls-5" d="m187.92,43.79l11.27,7.83c5.57,3.87,12.31,5.57,19.08,5.11,8.92-.61,18.01,1.75,38.11,4.07,26.79,3.2,53.66,17.2,80.45,18.7s53.66-9.5,80.45-15.2c26.79-5.6,53.66-6,80.45-4.3s53.66,5.3,80.45,8.5,53.66,5.8,80.45,6,53.66-2.2,80.45-6.7c26.79-4.5,53.66-11.1,80.45-8.5,26.79,2.7,53.66,14.7,67.02,20.7l13.44,6V0H175.93l2.61,27.71c.61,6.48,4.05,12.36,9.39,16.07Z"/>
  <path class="cls-4" d="m246.26,34.11l7.26,4.95c3.29,2.24,7.12,3.61,11.09,3.78,10.75.45,22.84,5.27,43.95,7.67,24.62,2.8,49.31,11.2,73.93,11.3,24.62.2,49.31-7.8,73.93-12.6,24.62-4.9,49.31-6.5,73.93-1.9,24.62,4.7,49.31,15.7,73.93,17.9,24.62,2.1,49.31-4.5,73.93-8.9,24.62-4.3,49.31-6.3,73.93-3.1,24.62,3.1,49.31,11.5,73.93,10.6,24.62-.8,49.31-10.8,61.58-15.8l12.35-5V0H234.62l1.12,15.8c.52,7.39,4.4,14.13,10.52,18.3Z"/>
  <path class="cls-6" d="m316.54,30.6l.34.15c3.01,1.29,6.26,1.96,9.53,1.99,8.46.08,15.2,1.31,34.28,3.27,22.45,2.3,44.96,7.7,67.41,10.8,22.45,3.2,44.96,4.2,67.41,3.5,22.45-.6,44.96-3,67.41-6.6,22.45-3.7,44.96-8.7,67.41-8.5,22.45.1,44.96,5.5,67.41,5.1,22.45-.3,44.96-6.3,67.41-9.1,22.45-2.9,44.96-2.5,67.41,2s44.96,13.1,56.15,17.5l11.26,4.3V0H293.29l2.45,7.69c3.28,10.3,10.87,18.66,20.8,22.9Z"/>
  <path class="cls-7" d="m368.44,20.58h0c2.79,1.16,5.76,1.81,8.78,1.99,8.72.53,18.12,2.55,35.55,1.43,20.28-1.3,40.62-3.7,60.9-3.3,20.28.3,40.62,3.3,60.9,4.5,20.28,1.1,40.62.5,60.9-1s40.62-3.9,60.9-2.4,40.62,6.9,60.9,8c20.28,1.2,40.62-1.8,60.9-1.8s40.62,3,60.9,3.8c20.28.9,40.62-.5,50.73-1.1l10.17-.7V0H351.87l1.7,4.86c2.49,7.12,7.9,12.84,14.87,15.72Z"/>
</svg>