<?xml version="1.0" encoding="UTF-8"?>
<svg id="visual" xmlns="http://www.w3.org/2000/svg" viewBox="0 0 900 149.17" preserveAspectRatio="none">
  <defs>
    <style>
      .cls-1 {
        fill: #164a41;
      }

      .cls-2 {
        fill: #235847;
      }

      .cls-3 {
        fill: #1a4f43;
      }

      .cls-4 {
        fill: #396a4c;
      }

      .cls-5 {
        fill: #2e6149;
      }

      .cls-6 {
        fill: #46734d;
      }

      .cls-7 {
        fill: #4d774e;
      }
    </style>
  </defs>
  <path class="cls-1" d="m0,2.17l16.7-1C33.3.17,66.7-1.83,100,3.87c33.3,5.6,66.7,19,100,20.3s66.7-9.3,100-14.7c33.3-5.3,66.7-5.3,100,.2s66.7,16.5,100,22.7c33.3,6.1,66.7,7.5,100,6s66.7-5.9,100-9.7,66.7-7.2,100-5,66.7,9.8,83.3,13.7l16.7,3.8v108H0V2.17Z"/>
  <path class="cls-3" d="m0,10.17l15.61,9c15.52,9,46.74,27,77.87,29.2,31.13,2.1,62.35-11.5,93.48-18.4,31.13-6.8,62.35-6.8,93.48.5,31.13,7.4,62.35,22,93.48,27s62.35.4,93.48.9,62.35,6.1,93.48,2.5c31.13-3.7,62.35-16.7,93.48-23.9,31.13-7.1,62.35-8.5,93.48-9,15.69-.25,26.77,2.14,35.88,4.58,16.01,4.29,19.4,16.58,28.24,30.6l8.96,14.2c6.54,10.37,10.01,22.38,10.01,34.64l10.39,37.19H0V10.17Z"/>
  <path class="cls-2" d="m0,33.17l14.52,5.2c14.44,5.1,43.48,15.5,72.44,19.8s58,2.7,86.96,5.2,58,9.1,86.96,13.3,58,5.8,86.96-1.7c28.96-7.5,58-24.1,86.96-28.5,28.96-4.3,58,3.7,86.96,11.7,28.96,8,58,16,86.96,12,28.96-4,58-20,86.96-24.5,12.19-1.89,21.77,3.05,29.84,3.42,15.76.73,17.19,7.9,27.74,19.63l9.96,5.67c7.86,8.74,11.66,20.39,10.45,32.08l8.96,42.7H0V33.17Z"/>
  <path class="cls-5" d="m0,91.17l13.43-2.2c13.35-2.1,40.22-6.5,67-12.1,26.79-5.7,53.65-12.7,80.44-14.5,26.79-1.9,53.65,1.5,80.44,2s53.65-1.9,80.44,1c26.79,2.8,53.65,10.8,80.44,10.8s53.65-8,80.44-10,53.65,2,80.44.5,53.65-8.5,80.44-7.7c26.79.9,24.29,9.28,37.64,13.68l30.18,24.94,12.61,51.59H0v-58Z"/>
  <path class="cls-4" d="m640.05,100.12c5.69.23,20.37,9.82,20.86,20.01.19,4.1.66,8.18,1.37,12.23l2.93,16.81H0v-60l12.34-1.2c12.27-1.1,36.96-3.5,61.57,0s49.3,12.9,73.91,11.5c24.61-1.3,49.3-13.3,73.91-19.5,24.61-6.1,49.3-6.5,73.91-2.8s49.3,11.3,73.91,17.3c24.61,6,49.3,10.4,73.91,10.2s49.3-4.8,73.91-8.2c24.61-3.3,49.3-5.3,73.91-5.8l48.76,9.45Z"/>
  <path class="cls-6" d="m606.51,145.23v3.94s-11.25,0-11.25,0H0v-36l11.25,1.8c11.19,1.9,33.69,5.5,56.14,2s44.95-14.1,67.39-17.8,44.95-.3,67.39,3.8c22.44,4.2,44.95,9.2,67.39,8.5,22.44-.6,44.95-7,67.39-6.3s44.95,8.3,67.39,10.2c22.44,1.8,44.95-2.2,67.39-6.4,21.8-3.98,43.66-8.25,65.46-9.68,1.29-.08,2.58-.05,3.86.09l27.41,3.03c9.41,1.04,17.97,5.9,23.69,13.44l8.06,10.63c4.09,5.39,6.31,11.98,6.31,18.75Z"/>
  <path class="cls-7" d="m538.32,149.17H0v-29l10.18,2.5c10.12,2.5,30.47,7.5,50.77,6.7,20.29-.9,40.65-7.5,60.94-10.2s40.65-1.3,60.94.3c20.29,1.7,40.65,3.7,60.94,2.7s40.65-5,60.94-7.2c20.29-2.1,40.65-2.5,60.94-1.1,20.29,1.3,40.65,4.3,60.94,6.8s40.65,4.5,60.94,7.3c7.18,1.03,12,1.72,15.68,2.27,10.13,1.51,22.86-8.28,31.9-3.46l6.28,2.14c3.87,1.32,6.53,4.89,6.68,8.98l.39,10.61-10.18.66Z"/>
</svg>