<?xml version="1.0" encoding="UTF-8"?>
<svg id="visual" xmlns="http://www.w3.org/2000/svg" viewBox="0 0 900 600" preserveAspectRatio="none">
  <defs>
    <style>
      .cls-1 {
        fill: #164a41;
      }

      .cls-2 {
        fill: #235847;
      }

      .cls-3 {
        fill: #1a4f43;
      }

      .cls-4 {
        fill: #396a4c;
      }

      .cls-5 {
        fill: #2e6149;
      }

      .cls-6 {
        fill: #46734d;
      }

      .cls-7 {
        fill: #4d774e;
      }
    </style>
  </defs>
  <rect class="cls-7" width="900" height="600"/>
  <g>
    <path class="cls-6" d="m900,351.5c-13.2-8.2-26.5-16.5-40.5-17.9-14-1.5-28.8,3.8-42.3,2.3-13.5-1.4-25.7-9.7-38.8-15.2s-27-8.1-39.2-14.3c-12.2-6.2-22.6-16-34-24.1-11.5-8.2-24.1-14.7-34-24.1-9.9-9.3-17.1-21.6-27.2-31.4s-23.1-17.3-32-28c-9-10.7-13.8-24.6-17.5-38.5-3.7-13.8-6.3-27.6-9.6-40.8-3.3-13.2-7.5-25.8-14-38.4-6.6-12.6-15.7-25.2-19.9-38.7-4.1-13.6-3.3-28-2.5-42.4h351.5v351.5Z"/>
    <path class="cls-4" d="m900,293c-11-6.9-22.1-13.8-33.8-15-11.6-1.3-23.9,3.2-35.2,2-11.3-1.3-21.5-8.2-32.4-12.7-10.9-4.6-22.5-6.8-32.6-12-10.1-5.2-18.8-13.3-28.4-20.1-9.5-6.7-20-12.2-28.2-20-8.3-7.8-14.3-18-22.7-26.2-8.5-8.2-19.3-14.4-26.7-23.3-7.5-8.9-11.5-20.5-14.6-32.1-3.1-11.5-5.2-23-8-34-2.8-11-6.2-21.5-11.7-32s-13.1-21-16.5-32.3c-3.5-11.3-2.8-23.3-2.2-35.3h293v293Z"/>
    <path class="cls-5" d="m900,234.4c-8.8-5.5-17.7-11.1-27-12-9.3-1-19.2,2.5-28.2,1.6-9-1-17.2-6.5-25.9-10.2-8.7-3.6-18-5.4-26.1-9.6-8.1-4.1-15-10.6-22.7-16-7.7-5.4-16-9.8-22.6-16-6.6-6.3-11.4-14.5-18.2-21-6.7-6.6-15.4-11.5-21.3-18.7-6-7.1-9.2-16.4-11.7-25.6-2.4-9.3-4.1-18.4-6.4-27.2-2.2-8.8-4.9-17.2-9.3-25.6-4.4-8.4-10.5-16.8-13.3-25.9-2.7-9-2.2-18.6-1.7-28.2h234.4v234.4Z"/>
    <path class="cls-2" d="m900,175.8c-6.6-4.2-13.2-8.3-20.3-9-7-.8-14.3,1.9-21.1,1.2-6.8-.8-12.9-4.9-19.4-7.6-6.6-2.8-13.5-4.1-19.6-7.2-6.1-3.1-11.3-8-17-12.1-5.8-4-12-7.3-17-12-4.9-4.7-8.5-10.8-13.6-15.7-5.1-4.9-11.6-8.6-16-14-4.5-5.3-6.9-12.3-8.7-19.2-1.9-7-3.2-13.9-4.9-20.4-1.6-6.6-3.7-12.9-7-19.2-3.3-6.3-7.8-12.7-9.9-19.4-2.1-6.8-1.7-14-1.3-21.2h175.8v175.8Z"/>
    <path class="cls-3" d="m900,117.2c-4.4-2.8-8.8-5.5-13.5-6-4.7-.5-9.6,1.3-14.1.8-4.5-.5-8.6-3.3-12.9-5.1-4.4-1.8-9-2.7-13.1-4.8-4.1-2-7.5-5.3-11.3-8-3.9-2.7-8.1-4.9-11.4-8-3.3-3.1-5.7-7.2-9-10.5-3.4-3.3-7.7-5.8-10.7-9.3-3-3.6-4.6-8.2-5.8-12.9-1.3-4.6-2.1-9.2-3.2-13.6-1.1-4.4-2.5-8.6-4.7-12.8-2.2-4.2-5.2-8.4-6.6-12.9-1.4-4.5-1.1-9.3-.9-14.1h117.2v117.2Z"/>
    <path class="cls-1" d="m900,58.6c-2.2-1.4-4.4-2.8-6.8-3-2.3-.3-4.7.6-7,.4-2.3-.3-4.3-1.6-6.5-2.5-2.2-1-4.5-1.4-6.5-2.4-2-1.1-3.8-2.7-5.7-4.1-1.9-1.3-4-2.4-5.6-4-1.7-1.5-2.9-3.6-4.6-5.2-1.7-1.6-3.8-2.9-5.3-4.7-1.5-1.7-2.3-4.1-2.9-6.4-.6-2.3-1.1-4.6-1.6-6.8-.6-2.2-1.3-4.3-2.4-6.4-1.1-2.1-2.6-4.2-3.3-6.4-.7-2.3-.5-4.7-.4-7.1h58.6v58.6Z"/>
  </g>
  <g>
    <path class="cls-6" d="m0,248.5c14.5-.8,29.1-1.5,42.2,4.1,13.1,5.5,24.8,17.3,38.2,21.2,13.4,3.9,28.6-.1,43,.8s28.1,6.6,39.3,15.5c11.1,8.9,19.6,20.9,31.6,28.4,12,7.6,27.6,10.7,37.1,20.3,9.6,9.5,13.2,25.6,22.3,36.4,9.2,10.9,23.9,16.5,33.5,26.5,9.6,10.1,14.1,24.4,17.4,38.4,3.3,14.1,5.5,27.8,9.6,40.8,4.1,12.9,10.1,24.9,16.9,37.5,6.8,12.5,14.3,25.5,17.9,39.2,3.5,13.7,3,28.1,2.5,42.4H0V248.5Z"/>
    <path class="cls-4" d="m0,307c12.1-.5,24.2-1.1,35.2,3.5,10.9,4.6,20.6,14.4,31.8,17.6,11.2,3.3,23.8,0,35.8.7,12.1.8,23.5,5.6,32.7,12.9,9.3,7.4,16.4,17.4,26.4,23.7,10,6.4,23,8.9,31,16.9,7.9,8,10.9,21.3,18.6,30.4,7.6,9,19.9,13.7,27.9,22.1,7.9,8.3,11.7,20.3,14.4,32,2.8,11.7,4.6,23.1,8,33.9,3.4,10.8,8.4,20.8,14.1,31.3,5.7,10.4,12,21.3,14.9,32.7,3,11.4,2.6,23.3,2.2,35.3H0v-293Z"/>
    <path class="cls-5" d="m0,365.6c9.7-.4,19.4-.9,28.1,2.8,8.8,3.7,16.6,11.5,25.5,14.1,9,2.6,19,0,28.7.6,9.6.6,18.7,4.4,26.1,10.3,7.4,5.9,13.1,13.9,21.1,19,8,5,18.4,7.1,24.8,13.4,6.4,6.4,8.8,17.1,14.9,24.3,6.1,7.3,15.9,11.1,22.3,17.7,6.4,6.7,9.4,16.3,11.6,25.6,2.2,9.4,3.6,18.6,6.3,27.2,2.8,8.6,6.8,16.6,11.3,25,4.6,8.4,9.6,17,12,26.2,2.3,9.1,2,18.6,1.7,28.2H0v-234.4Z"/>
    <path class="cls-2" d="m0,424.2c7.3-.3,14.5-.7,21.1,2.1,6.6,2.7,12.4,8.6,19.1,10.6,6.7,1.9,14.3,0,21.5.4,7.2.5,14.1,3.3,19.6,7.7,5.6,4.5,9.8,10.5,15.8,14.3,6.1,3.8,13.8,5.3,18.6,10.1,4.8,4.8,6.6,12.8,11.2,18.2s11.9,8.3,16.7,13.3c4.8,5,7,12.1,8.7,19.2,1.7,7,2.7,13.9,4.8,20.3,2,6.5,5,12.5,8.4,18.8s7.2,12.8,9,19.6c1.8,6.9,1.5,14,1.3,21.2H0v-175.8Z"/>
    <path class="cls-3" d="m0,482.8c4.8-.2,9.7-.5,14.1,1.4,4.3,1.8,8.2,5.8,12.7,7.1,4.5,1.3,9.5-.1,14.3.2,4.8.3,9.4,2.2,13.1,5.2s6.6,7,10.6,9.5c4,2.5,9.2,3.5,12.3,6.7,3.2,3.2,4.4,8.6,7.5,12.2,3,3.6,7.9,5.5,11.1,8.8,3.2,3.4,4.7,8.1,5.8,12.8s1.9,9.3,3.2,13.6c1.4,4.3,3.4,8.3,5.7,12.5,2.2,4.2,4.7,8.5,5.9,13.1,1.2,4.5,1,9.3.9,14.1H0v-117.2Z"/>
    <path class="cls-1" d="m0,541.4c2.4-.1,4.8-.2,7,.7,2.2.9,4.2,2.9,6.4,3.5,2.2.7,4.8,0,7.2.2,2.4.1,4.7,1.1,6.5,2.5,1.9,1.5,3.3,3.5,5.3,4.8,2,1.3,4.6,1.8,6.2,3.4,1.6,1.6,2.2,4.2,3.7,6s4,2.8,5.6,4.5c1.6,1.6,2.3,4,2.9,6.4.5,2.3.9,4.6,1.6,6.7.6,2.2,1.6,4.2,2.8,6.3,1.1,2.1,2.4,4.3,3,6.5.6,2.3.5,4.7.4,7.1H0v-58.6Z"/>
  </g>
</svg>