<?xml version="1.0" encoding="UTF-8"?>
<svg id="visual" xmlns="http://www.w3.org/2000/svg" viewBox="0 0 900 150.2" preserveAspectRatio="none">
  <defs>
    <style>
      .cls-1 {
        fill: #164a41;
      }

      .cls-2 {
        fill: #215646;
      }

      .cls-3 {
        fill: #3d6c4c;
      }

      .cls-4 {
        fill: #2e6149;
      }

      .cls-5 {
        fill: #4d774e;
      }
    </style>
  </defs>
  <path class="cls-5" d="m0,147l16.7-.2c16.6-.1,50-.5,83.3-8.6,33.3-8.2,66.7-24.2,100-32.2s66.7-8,100-3.3c33.3,4.6,66.7,14,100,13.1,33.3-.8,66.7-11.8,100-9.3s66.7,18.5,100,28.8c33.3,10.4,66.7,15,100,14.9,33.3-.2,66.7-5.2,100-15.5,33.3-10.4,66.7-26,83.3-33.9l16.7-7.8V0H0v147Z"/>
  <path class="cls-3" d="m0,90l16.7-1.2c16.6-1.1,50-3.5,83.3.9,33.3,4.3,66.7,15.3,100,19.5,33.3,4.1,66.7,1.5,100-6.2s66.7-20.3,100-27,66.7-7.3,100-6.8,66.7,2.1,100,2c33.3-.2,66.7-2.2,100,3,33.3,5.1,66.7,17.5,100,23s66.7,4.1,83.3,3.5l16.7-.7V0H0v90Z"/>
  <path class="cls-4" d="m0,87l16.7,1.3c16.6,1.4,50,4,83.3,2.7s66.7-6.7,100-9,66.7-1.7,100-4.2,66.7-8.1,100-6c33.3,2.2,66.7,12.2,100,14.5,33.3,2.4,66.7-3,100-2.8s66.7,5.8,100,5.3,66.7-7.1,100-11.5c33.3-4.3,66.7-6.3,83.3-7.3l16.7-1V0H0v87Z"/>
  <path class="cls-2" d="m0,60l16.7-3c16.6-3,50-9,83.3-12.3,33.3-3.4,66.7-4,100-1.5s66.7,8.1,100,11.6,66.7,4.9,100,4.4,66.7-2.9,100-4.9,66.7-3.6,100-6.1,66.7-5.9,100-6.7,66.7.8,100,3.3,66.7,5.9,83.3,7.5l16.7,1.7V0H0v60Z"/>
  <path class="cls-1" d="m0,47l16.7-5.3c16.6-5.4,50-16,83.3-17s66.7,7.6,100,9.6,66.7-2.6,100-1.6,66.7,7.6,100,6.8,66.7-9.2,100-12.3c33.3-3.2,66.7-1.2,100-.4,33.3.9,66.7.5,100,.2s66.7-.7,100-3.2,66.7-7.1,83.3-9.5l16.7-2.3V0H0v47Z"/>
</svg>