<?xml version="1.0" encoding="UTF-8"?>
<svg id="visual" xmlns="http://www.w3.org/2000/svg" viewBox="0 0 900 137.38" preserveAspectRatio="none">
  <defs>
    <style>
      .cls-1 {
        fill: #164a41;
      }

      .cls-2 {
        fill: #215646;
      }

      .cls-3 {
        fill: #3d6c4c;
      }

      .cls-4 {
        fill: #2e6149;
      }

      .cls-5 {
        fill: #4d774e;
      }
    </style>
  </defs>
  <path class="cls-5" d="m0,32.38l16.7.7c16.6.6,50,2,83.3,3s66.7,1.6,100-4c33.3-5.7,66.7-17.7,100-15.9,33.3,1.9,66.7,17.5,100,16.5s66.7-18.6,100-26.8,66.7-6.8,100-2,66.7,13.2,100,19,66.7,9.2,100,6.2,66.7-12.4,83.3-17l16.7-4.7v130H0V32.38Z"/>
  <path class="cls-3" d="m0,69.38l16.7-2.3c16.6-2.4,50-7,83.3-11.7s66.7-9.3,100-10,66.7,2.7,100,1.7,66.7-6.4,100-8.2,66.7-.2,100-2.2,66.7-7.6,100-10.3,66.7-2.3,100,.5,66.7,8.2,100,12.2,66.7,6.6,83.3,8l16.7,1.3v89H0v-68Z"/>
  <path class="cls-4" d="m0,79.38l16.7-1.3c16.6-1.4,50-4,83.3-4.7s66.7.7,100-3.8,66.7-14.9,100-17c33.3-2.2,66.7,3.8,100,7.8s66.7,6,100,1.8c33.3-4.1,66.7-14.5,100-14.6,33.3-.2,66.7,9.8,100,16.1,33.3,6.4,66.7,9,100,9.5s66.7-1.1,83.3-2l16.7-.8v67H0v-58Z"/>
  <path class="cls-2" d="m0,104.38l16.7-1.7c16.6-1.6,50-5,83.3-7.1,33.3-2.2,66.7-3.2,100-6.9,33.3-3.6,66.7-10,100-13.8s66.7-5.2,100-3.7,66.7,5.9,100,7c33.3,1.2,66.7-.8,100-1.8s66.7-1,100-2.3c33.3-1.4,66.7-4,100-2s66.7,8.6,83.3,12l16.7,3.3v50H0v-33Z"/>
  <path class="cls-1" d="m0,87.38l16.7,2.8c16.6,2.9,50,8.5,83.3,12.4,33.3,3.8,66.7,5.8,100,5.1,33.3-.6,66.7-4,100-3s66.7,6.4,100,8.4,66.7.6,100-3.9,66.7-12.1,100-11.6,66.7,9.1,100,10.8,66.7-3.7,100-7.7,66.7-6.6,83.3-8l16.7-1.3v46H0v-50Z"/>
</svg>